<svg width="41" height="41" viewBox="0 0 41 41" fill="none" xmlns="http://www.w3.org/2000/svg">
<path d="M20.044 0.650879C16.0884 0.650879 12.2216 1.82386 8.93261 4.02149C5.64363 6.21912 3.08018 9.34269 1.56642 12.9972C0.052672 16.6517 -0.343395 20.6731 0.42831 24.5527C1.20001 28.4323 3.10483 31.996 5.90188 34.793C8.69893 37.5901 12.2626 39.4949 16.1422 40.2666C20.0218 41.0383 24.0432 40.6422 27.6977 39.1285C31.3522 37.6147 34.4758 35.0513 36.6734 31.7623C38.871 28.4733 40.044 24.6065 40.044 20.6509C40.044 18.0244 39.5267 15.4237 38.5216 12.9972C37.5165 10.5707 36.0433 8.36591 34.1861 6.50874C32.329 4.65157 30.1242 3.17838 27.6977 2.17329C25.2712 1.16819 22.6705 0.650879 20.044 0.650879ZM20.044 36.6509C16.8795 36.6509 13.7861 35.7125 11.1549 33.9544C8.5237 32.1963 6.47295 29.6974 5.26194 26.7738C4.05094 23.8502 3.73409 20.6331 4.35145 17.5294C4.96881 14.4257 6.49267 11.5748 8.73031 9.33717C10.9679 7.09953 13.8189 5.57568 16.9226 4.95831C20.0263 4.34095 23.2433 4.6578 26.167 5.86881C29.0906 7.07981 31.5894 9.13057 33.3475 11.7618C35.1056 14.3929 36.044 17.4864 36.044 20.6509C36.044 24.8943 34.3583 28.964 31.3577 31.9646C28.3571 34.9652 24.2875 36.6509 20.044 36.6509Z" fill="url(#paint0_linear_13_107)"/>
<path d="M17.084 20.2109C17.7364 20.0783 18.3203 19.7176 18.7308 19.1935C19.1413 18.6693 19.3516 18.0161 19.324 17.3509C19.324 15.3509 17.784 14.1509 15.444 14.1509H10.044V27.1509H15.444C18.044 27.0509 20.044 25.7109 20.044 23.3909C20.0628 22.9867 20.0007 22.5828 19.8613 22.2029C19.722 21.8231 19.5082 21.4748 19.2325 21.1787C18.9568 20.8825 18.6248 20.6443 18.2558 20.4781C17.8869 20.312 17.4885 20.2211 17.084 20.2109ZM12.564 15.9909H14.864C16.064 15.9909 16.764 16.6309 16.764 17.6909C16.764 18.7509 16.004 19.4709 14.264 19.4709H12.564V15.9909ZM14.564 25.1309H12.564V21.2509H15.024C16.524 21.2509 17.364 22.0109 17.364 23.2509C17.364 24.4909 16.524 25.1309 14.484 25.1309H14.564ZM25.544 17.2509C24.9376 17.2004 24.3274 17.2816 23.7553 17.489C23.1832 17.6965 22.6627 18.0252 22.2296 18.4526C21.7964 18.8801 21.4608 19.3961 21.2458 19.9655C21.0309 20.5348 20.9415 21.1438 20.984 21.7509V22.6509C20.9348 23.2753 21.0225 23.9029 21.2412 24.4899C21.4598 25.0769 21.8041 25.609 22.2498 26.049C22.6956 26.4891 23.2321 26.8264 23.8218 27.0375C24.4116 27.2485 25.0403 27.3282 25.664 27.2709C26.6513 27.3881 27.6468 27.1336 28.4565 26.5567C29.2663 25.9799 29.8322 25.1222 30.044 24.1509H27.624C27.4988 24.5669 27.2274 24.9236 26.8598 25.1552C26.4922 25.3868 26.0533 25.4776 25.624 25.4109C25.3183 25.4185 25.0144 25.3606 24.733 25.2409C24.4515 25.1212 24.199 24.9425 23.9924 24.717C23.7858 24.4915 23.63 24.2243 23.5354 23.9334C23.4408 23.6425 23.4096 23.3348 23.444 23.0309V22.7509H30.044V21.8109C30.0911 21.2052 30.0075 20.5965 29.7989 20.0259C29.5902 19.4554 29.2614 18.9363 28.8347 18.5039C28.408 18.0715 27.8933 17.7358 27.3256 17.5196C26.7578 17.3035 26.1503 17.2118 25.544 17.2509ZM27.544 21.2509H23.504C23.4789 20.9735 23.5121 20.694 23.6013 20.4301C23.6905 20.1663 23.8339 19.924 24.0222 19.7188C24.2104 19.5136 24.4395 19.3499 24.6947 19.2384C24.9498 19.1268 25.2255 19.0697 25.504 19.0709C25.7825 19.0697 26.0582 19.1268 26.3134 19.2384C26.5685 19.3499 26.7976 19.5136 26.9859 19.7188C27.1742 19.924 27.3175 20.1663 27.4067 20.4301C27.4959 20.694 27.5291 20.9735 27.504 21.2509H27.544ZM22.544 15.0509H28.544V16.0509H22.544V15.0509Z" fill="url(#paint1_linear_13_107)"/>
<defs>
<linearGradient id="paint0_linear_13_107" x1="20.044" y1="0.650879" x2="20.044" y2="40.6509" gradientUnits="userSpaceOnUse">
<stop stop-color="#FF352D"/>
<stop offset="1" stop-color="#F5D3A1"/>
</linearGradient>
<linearGradient id="paint1_linear_13_107" x1="20.044" y1="0.650879" x2="20.044" y2="40.6509" gradientUnits="userSpaceOnUse">
<stop stop-color="#FF352D"/>
<stop offset="1" stop-color="#F5D3A1"/>
</linearGradient>
</defs>
</svg>
