<svg width="45" height="48" viewBox="0 0 45 48" fill="none" xmlns="http://www.w3.org/2000/svg">
<path d="M22.7482 8.99717L23.5999 10.8068L27.4448 8.99717L23.5999 7.18757L22.7482 8.99717ZM11.7482 3.82007L12.5999 2.01047L9.74823 0.668342V3.82007H11.7482ZM9.74823 34.8827C9.74823 35.9872 10.6437 36.8827 11.7482 36.8827C12.8528 36.8827 13.7482 35.9872 13.7482 34.8827H9.74823ZM40.7482 34.8827C40.7482 36.6127 39.3526 38.6773 35.9709 40.4281C32.6898 42.1267 28.018 43.2369 22.7482 43.2369V47.2369C28.5241 47.2369 33.8524 46.0291 37.8099 43.9803C41.6667 41.9836 44.7482 38.871 44.7482 34.8827H40.7482ZM22.7482 43.2369C17.4784 43.2369 12.8067 42.1267 9.5256 40.4281C6.14382 38.6773 4.74823 36.6127 4.74823 34.8827H0.74823C0.74823 38.871 3.82979 41.9836 7.68659 43.9803C11.6441 46.0291 16.9723 47.2369 22.7482 47.2369V43.2369ZM4.74823 34.8827C4.74823 33.1526 6.14382 31.088 9.5256 29.3372C12.8067 27.6386 17.4784 26.5285 22.7482 26.5285V22.5285C16.9723 22.5285 11.6441 23.7362 7.68659 25.785C3.82979 27.7817 0.74823 30.8943 0.74823 34.8827H4.74823ZM22.7482 26.5285C28.018 26.5285 32.6898 27.6386 35.9709 29.3372C39.3526 31.088 40.7482 33.1526 40.7482 34.8827H44.7482C44.7482 30.8943 41.6667 27.7817 37.8099 25.785C33.8524 23.7362 28.5241 22.5285 22.7482 22.5285V26.5285ZM30.7482 34.8827C30.7482 34.9059 30.744 34.9217 30.7396 34.9324C30.7347 34.9443 30.7286 34.9527 30.7238 34.9576C30.7191 34.9625 30.7183 34.9614 30.7244 34.9587C30.7321 34.9554 30.7417 34.9535 30.7482 34.9535V38.9535C33.0224 38.9535 34.7482 37.0647 34.7482 34.8827H30.7482ZM30.7482 34.9535C30.7548 34.9535 30.7644 34.9554 30.7721 34.9587C30.7782 34.9614 30.7773 34.9625 30.7726 34.9576C30.7679 34.9527 30.7617 34.9443 30.7569 34.9324C30.7525 34.9217 30.7482 34.9059 30.7482 34.8827H26.7482C26.7482 37.0647 28.474 38.9535 30.7482 38.9535V34.9535ZM30.7482 34.8827C30.7482 34.8594 30.7525 34.8436 30.7569 34.8329C30.7617 34.821 30.7679 34.8127 30.7726 34.8077C30.7773 34.8029 30.7782 34.8039 30.7721 34.8066C30.7644 34.8099 30.7548 34.8118 30.7482 34.8118V30.8118C28.474 30.8118 26.7482 32.7006 26.7482 34.8827H30.7482ZM30.7482 34.8118C30.7417 34.8118 30.7321 34.8099 30.7244 34.8066C30.7183 34.8039 30.7191 34.8029 30.7238 34.8077C30.7286 34.8127 30.7347 34.821 30.7396 34.8329C30.744 34.8436 30.7482 34.8594 30.7482 34.8827H34.7482C34.7482 32.7006 33.0224 30.8118 30.7482 30.8118V34.8118ZM23.5999 7.18757L12.5999 2.01047L10.8966 5.62967L21.8966 10.8068L23.5999 7.18757ZM9.74823 3.82007V14.1743H13.7482V3.82007H9.74823ZM12.5999 15.9839L23.5999 10.8068L21.8966 7.18757L10.8966 12.3647L12.5999 15.9839ZM13.7482 34.8827V14.1743H9.74823V34.8827H13.7482Z" fill="url(#paint0_linear_13_21)"/>
<defs>
<linearGradient id="paint0_linear_13_21" x1="22.7482" y1="3.82007" x2="22.7482" y2="45.2369" gradientUnits="userSpaceOnUse">
<stop stop-color="#FF352D"/>
<stop offset="1" stop-color="#F5D3A1"/>
</linearGradient>
</defs>
</svg>
