<svg width="36" height="33" viewBox="0 0 36 33" fill="none" xmlns="http://www.w3.org/2000/svg">
<path d="M35.3695 30.1379L28.3383 13.1067C28.2084 12.7922 27.9881 12.5233 27.7053 12.3341C27.4225 12.1449 27.0899 12.0439 26.7496 12.0439C26.4093 12.0439 26.0767 12.1449 25.7939 12.3341C25.5111 12.5233 25.2908 12.7922 25.1609 13.1067L18.1297 30.1379C18.0423 30.3468 17.997 30.5709 17.9964 30.7973C17.9958 31.0237 18.04 31.248 18.1264 31.4573C18.2127 31.6666 18.3396 31.8568 18.4997 32.0169C18.6598 32.177 18.85 32.3039 19.0593 32.3903C19.2685 32.4767 19.4928 32.5209 19.7193 32.5204C19.9457 32.5198 20.1698 32.4745 20.3786 32.3871C20.5875 32.2997 20.7771 32.1719 20.9364 32.011C21.0957 31.8501 21.2217 31.6594 21.307 31.4497L22.7391 27.9817H30.7602L32.1922 31.4497C32.322 31.7643 32.5423 32.0334 32.8252 32.2227C33.1081 32.4119 33.4409 32.513 33.7812 32.5129C34.0637 32.5128 34.3417 32.443 34.5908 32.3098C34.8398 32.1766 35.0522 31.9841 35.2091 31.7493C35.3661 31.5145 35.4628 31.2447 35.4906 30.9636C35.5184 30.6825 35.4774 30.399 35.3695 30.1379ZM24.1586 24.5442L26.75 18.2668L29.3414 24.5442H24.1586ZM18.925 23.0536C19.192 22.6847 19.3018 22.225 19.2301 21.7753C19.1585 21.3256 18.9114 20.9228 18.543 20.6551C18.5273 20.6434 17.3711 19.7856 15.6922 17.9418C18.7898 13.7481 20.5445 8.977 21.2602 6.73169H23.7812C24.2371 6.73169 24.6743 6.55061 24.9966 6.22828C25.3189 5.90595 25.5 5.46878 25.5 5.01294C25.5 4.5571 25.3189 4.11993 24.9966 3.7976C24.6743 3.47527 24.2371 3.29419 23.7812 3.29419H14.7188V1.73169C14.7188 1.27585 14.5377 0.838678 14.2153 0.51635C13.893 0.194021 13.4558 0.0129395 13 0.0129395C12.5442 0.0129395 12.107 0.194021 11.7847 0.51635C11.4623 0.838678 11.2812 1.27585 11.2812 1.73169V3.29419H2.21875C1.76291 3.29419 1.32574 3.47527 1.00341 3.7976C0.681082 4.11993 0.5 4.5571 0.5 5.01294C0.5 5.46878 0.681082 5.90595 1.00341 6.22828C1.32574 6.55061 1.76291 6.73169 2.21875 6.73169H17.6289C16.8852 8.83716 15.5156 12.1614 13.4266 15.1973C10.9727 11.9411 10.0609 9.83403 10.0539 9.81685C9.87426 9.40168 9.53818 9.07407 9.11856 8.90509C8.69895 8.7361 8.22963 8.73935 7.81239 8.91414C7.39516 9.08893 7.06365 9.42116 6.88978 9.83878C6.71591 10.2564 6.71368 10.7257 6.88359 11.145C6.92891 11.2528 8.02031 13.8192 11.0133 17.702C11.0852 17.795 11.1562 17.8856 11.2273 17.9762C8.16172 21.4411 5.15391 23.5903 3.89531 24.284C3.4951 24.5023 3.198 24.8706 3.06936 25.308C2.94073 25.7453 2.99109 26.2159 3.20937 26.6161C3.42766 27.0163 3.79599 27.3134 4.23333 27.442C4.67067 27.5707 5.1412 27.5203 5.54141 27.302C5.71016 27.2098 9.33828 25.2012 13.4813 20.6153C15.2406 22.4965 16.45 23.384 16.5227 23.4356C16.7055 23.5684 16.9127 23.6638 17.1324 23.7164C17.3521 23.7691 17.5801 23.7779 17.8032 23.7423C18.0263 23.7067 18.2403 23.6275 18.4328 23.5092C18.6252 23.3909 18.7925 23.2366 18.925 23.0536Z" fill="url(#paint0_linear_13_23)"/>
<defs>
<linearGradient id="paint0_linear_13_23" x1="17.9995" y1="0.0129395" x2="17.9995" y2="32.5204" gradientUnits="userSpaceOnUse">
<stop stop-color="#FF352D"/>
<stop offset="1" stop-color="#F5D3A1"/>
</linearGradient>
</defs>
</svg>
