<svg width="47" height="35" viewBox="0 0 47 35" fill="none" xmlns="http://www.w3.org/2000/svg">
<path d="M2.48849 11.3363L1.74638 9.47906C0.986713 9.78261 0.488495 10.5182 0.488495 11.3363C0.488495 12.1544 0.986713 12.8899 1.74638 13.1935L2.48849 11.3363ZM23.5105 2.93628L24.2526 1.07906C23.7762 0.888686 23.2448 0.888686 22.7684 1.07906L23.5105 2.93628ZM44.5325 11.3363L45.2746 13.1935C46.0343 12.8899 46.5325 12.1544 46.5325 11.3363C46.5325 10.5182 46.0343 9.78261 45.2746 9.47906L44.5325 11.3363ZM23.5105 19.7363L22.7684 21.5935C23.2448 21.7839 23.7762 21.7839 24.2526 21.5935L23.5105 19.7363ZM46.5325 11.4463C46.5325 10.3417 45.6371 9.44628 44.5325 9.44628C43.4279 9.44628 42.5325 10.3417 42.5325 11.4463H46.5325ZM42.5325 20.6693C42.5325 21.7738 43.4279 22.6693 44.5325 22.6693C45.6371 22.6693 46.5325 21.7738 46.5325 20.6693H42.5325ZM14.0445 15.7613C14.0445 14.6567 13.1491 13.7613 12.0445 13.7613C10.9399 13.7613 10.0445 14.6567 10.0445 15.7613H14.0445ZM12.0445 28.2033H10.0445C10.0445 28.7393 10.2597 29.2529 10.6417 29.6289L12.0445 28.2033ZM34.9765 28.2033L36.3792 29.6289C36.7613 29.2529 36.9765 28.7393 36.9765 28.2033H34.9765ZM36.9765 15.7613C36.9765 14.6567 36.0811 13.7613 34.9765 13.7613C33.8719 13.7613 32.9765 14.6567 32.9765 15.7613H36.9765ZM3.23061 13.1935L24.2526 4.7935L22.7684 1.07906L1.74638 9.47906L3.23061 13.1935ZM22.7684 4.7935L43.7904 13.1935L45.2746 9.47906L24.2526 1.07906L22.7684 4.7935ZM43.7904 9.47906L22.7684 17.8791L24.2526 21.5935L45.2746 13.1935L43.7904 9.47906ZM24.2526 17.8791L3.23061 9.47906L1.74638 13.1935L22.7684 21.5935L24.2526 17.8791ZM42.5325 11.4463V20.6693H46.5325V11.4463H42.5325ZM10.0445 15.7613V28.2033H14.0445V15.7613H10.0445ZM12.0445 28.2033C10.6417 29.6289 10.6422 29.6293 10.6428 29.6299C10.643 29.6301 10.6435 29.6306 10.6439 29.631C10.6447 29.6317 10.6455 29.6326 10.6465 29.6335C10.6484 29.6354 10.6506 29.6375 10.6531 29.6399C10.658 29.6448 10.6642 29.6507 10.6715 29.6578C10.6863 29.672 10.7057 29.6906 10.7298 29.7132C10.7781 29.7586 10.845 29.8205 10.93 29.8966C11.0997 30.0486 11.342 30.2577 11.651 30.5048C12.2677 30.9979 13.1582 31.6486 14.2758 32.2986C16.4957 33.5897 19.712 34.9363 23.5095 34.9363V30.9363C20.652 30.9363 18.1358 29.9163 16.2869 28.8409C15.3702 28.3078 14.6423 27.7751 14.1491 27.3808C13.9032 27.1842 13.7177 27.0236 13.5984 26.9167C13.5388 26.8634 13.4959 26.8236 13.4704 26.7996C13.4577 26.7876 13.4493 26.7796 13.4454 26.7759C13.4435 26.774 13.4427 26.7732 13.443 26.7735C13.4431 26.7736 13.4435 26.7741 13.4443 26.7748C13.4446 26.7751 13.445 26.7755 13.4455 26.776C13.4458 26.7763 13.4462 26.7767 13.4463 26.7768C13.4468 26.7772 13.4473 26.7777 12.0445 28.2033ZM23.5095 34.9363C27.3079 34.9363 30.5247 33.5898 32.7448 32.2987C33.8626 31.6486 34.7532 30.998 35.3699 30.5049C35.6789 30.2578 35.9212 30.0486 36.091 29.8966C36.1759 29.8205 36.2429 29.7586 36.2911 29.7133C36.3153 29.6906 36.3347 29.672 36.3494 29.6578C36.3568 29.6507 36.363 29.6448 36.3679 29.6399C36.3704 29.6375 36.3726 29.6354 36.3745 29.6335C36.3754 29.6326 36.3763 29.6317 36.3771 29.631C36.3775 29.6306 36.378 29.6301 36.3782 29.6299C36.3787 29.6293 36.3792 29.6289 34.9765 28.2033C33.5737 26.7777 33.5742 26.7772 33.5746 26.7768C33.5748 26.7767 33.5752 26.7763 33.5754 26.776C33.5759 26.7755 33.5764 26.7751 33.5767 26.7748C33.5774 26.7741 33.5779 26.7736 33.578 26.7735C33.5783 26.7732 33.5775 26.774 33.5756 26.7759C33.5717 26.7796 33.5633 26.7876 33.5506 26.7996C33.5251 26.8236 33.4822 26.8633 33.4226 26.9167C33.3033 27.0235 33.1178 27.1841 32.8719 27.3807C32.3787 27.7751 31.6507 28.3077 30.7339 28.8409C28.8848 29.9162 26.3681 30.9363 23.5095 30.9363V34.9363ZM36.9765 28.2033V15.7613H32.9765V28.2033H36.9765Z" fill="url(#paint0_linear_12_25)"/>
<defs>
<linearGradient id="paint0_linear_12_25" x1="23.5105" y1="2.93628" x2="23.5105" y2="32.9363" gradientUnits="userSpaceOnUse">
<stop stop-color="#FF352D"/>
<stop offset="1" stop-color="#F5D3A1"/>
</linearGradient>
</defs>
</svg>
