<svg width="41" height="41" viewBox="0 0 41 41" fill="none" xmlns="http://www.w3.org/2000/svg">
<path d="M30.5603 25.1836C30.5603 26.9358 31.0583 27.6346 32.3603 27.6346C35.2624 27.6346 37.1103 23.9321 37.1103 17.7744C37.1103 8.3626 30.2603 3.85697 21.7083 3.85697C12.9103 3.85697 4.90826 9.76435 4.90826 20.9283C4.90826 31.5916 11.9083 37.3989 22.6583 37.3989C26.3083 37.3989 28.7583 36.9984 32.5062 35.7468L33.3103 39.0989C29.6103 40.3025 25.6562 40.6509 22.6083 40.6509C8.50826 40.6509 0.956177 32.8912 0.956177 20.9262C0.956177 8.86114 9.70826 0.650879 21.7583 0.650879C34.3083 0.650879 40.9562 8.16026 40.9562 17.3718C40.9562 25.1815 38.5083 31.139 30.8083 31.139C27.3062 31.139 25.0083 29.7372 24.7083 26.6313C23.8083 30.0856 21.4083 31.139 18.1562 31.139C13.8062 31.139 10.1562 27.7827 10.1562 21.0263C10.1562 14.2178 13.3583 10.0126 19.1083 10.0126C22.1583 10.0126 24.0583 11.2141 24.9041 13.1165L26.3562 10.4631H30.5562V25.1836H30.5603ZM24.4124 18.5754C24.4124 15.824 22.3603 14.6705 20.6603 14.6705C18.8103 14.6705 16.7624 16.1703 16.7624 20.5779C16.7624 24.0823 18.3124 26.0347 20.6603 26.0347C22.3103 26.0347 24.4124 24.9834 24.4124 22.0797V18.5754Z" fill="url(#paint0_linear_13_111)"/>
<defs>
<linearGradient id="paint0_linear_13_111" x1="20.9562" y1="0.650879" x2="20.9562" y2="40.6509" gradientUnits="userSpaceOnUse">
<stop stop-color="#FF352D"/>
<stop offset="1" stop-color="#F5D3A1"/>
</linearGradient>
</defs>
</svg>
