<svg width="40" height="41" viewBox="0 0 40 41" fill="none" xmlns="http://www.w3.org/2000/svg">
<path d="M19.999 0.650879C15.2501 0.650254 10.6561 2.38299 7.0391 5.53895C3.42211 8.69491 1.01833 13.0681 0.258005 17.8757C-0.502321 22.6833 0.430444 27.6115 2.88934 31.7782C5.34824 35.9448 9.17276 39.078 13.6783 40.6169C14.6807 40.8019 15.0395 40.1708 15.0395 39.628C15.0395 39.1407 15.0235 37.8496 15.0174 36.1328C9.45454 37.3664 8.27981 33.3819 8.27981 33.3819C7.9136 32.1421 7.12629 31.0779 6.06067 30.3823C4.25648 29.1096 6.19899 29.1384 6.19899 29.1384C7.48196 29.3193 8.61459 30.0986 9.26009 31.252C9.53097 31.7571 9.8967 32.2022 10.3362 32.5617C10.7757 32.9211 11.2802 33.1878 11.8206 33.3462C12.3611 33.5047 12.9268 33.5518 13.4851 33.4849C14.0434 33.418 14.5833 33.2383 15.0736 32.9564C15.1658 31.916 15.6188 30.9436 16.3465 30.2137C11.9082 29.6976 7.2414 27.9377 7.2414 20.0778C7.21677 18.0448 7.95285 16.0795 9.29818 14.5863C8.68947 12.8167 8.76115 10.8757 9.49864 9.15849C9.49864 9.15849 11.1765 8.60543 14.9954 11.2576C18.2707 10.3366 21.7273 10.3366 25.0026 11.2576C28.8235 8.60338 30.4994 9.15849 30.4994 9.15849C31.2411 10.8752 31.3112 12.8181 30.6998 14.5863C32.0501 16.0794 32.7855 18.0498 32.7526 20.086C32.7526 27.9665 28.0817 29.6976 23.6274 30.2055C24.5896 31.2129 25.0808 32.5945 24.9806 34.0008C24.9806 36.7435 24.9565 38.9557 24.9565 39.628C24.9565 40.1769 25.3133 40.8143 26.3337 40.6128C30.8374 39.0713 34.6595 35.9365 37.1158 31.7694C39.5722 27.6022 40.5027 22.6746 39.7408 17.8682C38.9789 13.0618 36.5743 8.69033 32.9573 5.53584C29.3403 2.38136 24.7469 0.649765 19.999 0.650879Z" fill="url(#paint0_linear_13_110)"/>
<defs>
<linearGradient id="paint0_linear_13_110" x1="20" y1="0.650879" x2="20" y2="40.6509" gradientUnits="userSpaceOnUse">
<stop stop-color="#FF352D"/>
<stop offset="1" stop-color="#F5D3A1"/>
</linearGradient>
</defs>
</svg>
