<svg width="40" height="41" viewBox="0 0 40 41" fill="none" xmlns="http://www.w3.org/2000/svg">
<path fill-rule="evenodd" clip-rule="evenodd" d="M11.7545 0.770879C13.8873 0.672697 14.5673 0.650879 20 0.650879C25.4327 0.650879 26.1127 0.674515 28.2436 0.770879C30.3745 0.867243 31.8291 1.20724 33.1018 1.69997C34.4345 2.20361 35.6436 2.99088 36.6436 4.00906C37.6618 5.00724 38.4473 6.21452 38.9491 7.54906C39.4436 8.82179 39.7818 10.2763 39.88 12.4036C39.9782 14.54 40 15.22 40 20.6509C40 26.0836 39.9764 26.7636 39.88 28.8963C39.7836 31.0236 39.4436 32.4782 38.9491 33.7509C38.4473 35.0856 37.6605 36.2949 36.6436 37.2945C35.6436 38.3127 34.4345 39.0982 33.1018 39.6C31.8291 40.0945 30.3745 40.4327 28.2473 40.5309C26.1127 40.6291 25.4327 40.6509 20 40.6509C14.5673 40.6509 13.8873 40.6272 11.7545 40.5309C9.62727 40.4345 8.17273 40.0945 6.9 39.6C5.56531 39.0981 4.35604 38.3113 3.35636 37.2945C2.33887 36.2957 1.55148 35.087 1.04909 33.7527C0.556364 32.48 0.218182 31.0254 0.12 28.8982C0.0218181 26.7618 0 26.0818 0 20.6509C0 15.2182 0.0236363 14.5382 0.12 12.4072C0.216364 10.2763 0.556364 8.82179 1.04909 7.54906C1.55222 6.21466 2.34022 5.00599 3.35818 4.00724C4.35644 2.98997 5.56449 2.20259 6.89818 1.69997C8.17091 1.20724 9.62545 0.869061 11.7527 0.770879H11.7545ZM28.0818 4.37088C25.9727 4.27452 25.34 4.25452 20 4.25452C14.66 4.25452 14.0273 4.27452 11.9182 4.37088C9.96727 4.45997 8.90909 4.78542 8.20364 5.05997C7.27091 5.42361 6.60364 5.85452 5.90364 6.55452C5.24008 7.20006 4.72942 7.98594 4.40909 8.85452C4.13455 9.55997 3.80909 10.6182 3.72 12.5691C3.62364 14.6782 3.60364 15.3109 3.60364 20.6509C3.60364 25.9909 3.62364 26.6236 3.72 28.7327C3.80909 30.6836 4.13455 31.7418 4.40909 32.4472C4.72909 33.3145 5.24 34.1018 5.90364 34.7472C6.54909 35.4109 7.33636 35.9218 8.20364 36.2418C8.90909 36.5163 9.96727 36.8418 11.9182 36.9309C14.0273 37.0272 14.6582 37.0472 20 37.0472C25.3418 37.0472 25.9727 37.0272 28.0818 36.9309C30.0327 36.8418 31.0909 36.5163 31.7964 36.2418C32.7291 35.8782 33.3964 35.4472 34.0964 34.7472C34.76 34.1018 35.2709 33.3145 35.5909 32.4472C35.8655 31.7418 36.1909 30.6836 36.28 28.7327C36.3764 26.6236 36.3964 25.9909 36.3964 20.6509C36.3964 15.3109 36.3764 14.6782 36.28 12.5691C36.1909 10.6182 35.8655 9.55997 35.5909 8.85452C35.2273 7.92179 34.7964 7.25452 34.0964 6.55452C33.4508 5.89101 32.6649 5.38035 31.7964 5.05997C31.0909 4.78542 30.0327 4.45997 28.0818 4.37088ZM17.4455 26.8163C18.8721 27.4102 20.4607 27.4904 21.9399 27.0431C23.4191 26.5958 24.6971 25.6489 25.5557 24.364C26.4142 23.0792 26.8001 21.5361 26.6474 19.9983C26.4946 18.4606 25.8127 17.0236 24.7182 15.9327C24.0204 15.2354 23.1767 14.7014 22.2479 14.3693C21.319 14.0372 20.3281 13.9152 19.3464 14.012C18.3647 14.1088 17.4166 14.4221 16.5706 14.9293C15.7245 15.4365 15.0014 16.125 14.4533 16.9452C13.9052 17.7653 13.5458 18.6969 13.4009 19.6726C13.2561 20.6484 13.3294 21.6441 13.6155 22.5882C13.9017 23.5322 14.3936 24.4011 15.0559 25.1322C15.7181 25.8633 16.5342 26.4385 17.4455 26.8163ZM12.7309 13.3818C13.6855 12.4272 14.8188 11.67 16.066 11.1534C17.3132 10.6367 18.65 10.3708 20 10.3708C21.35 10.3708 22.6868 10.6367 23.934 11.1534C25.1812 11.67 26.3145 12.4272 27.2691 13.3818C28.2237 14.3364 28.9809 15.4696 29.4975 16.7169C30.0141 17.9641 30.28 19.3009 30.28 20.6509C30.28 22.0009 30.0141 23.3377 29.4975 24.5849C28.9809 25.8321 28.2237 26.9654 27.2691 27.92C25.3412 29.8479 22.7264 30.9309 20 30.9309C17.2736 30.9309 14.6588 29.8479 12.7309 27.92C10.803 25.9921 9.71995 23.3773 9.71995 20.6509C9.71995 17.9244 10.803 15.3097 12.7309 13.3818ZM32.56 11.9018C32.7966 11.6786 32.9859 11.4103 33.1169 11.1126C33.2479 10.815 33.3178 10.4941 33.3226 10.1689C33.3273 9.84377 33.2668 9.52097 33.1445 9.21962C33.0223 8.91828 32.8408 8.64453 32.6108 8.41459C32.3809 8.18464 32.1071 8.00317 31.8058 7.88091C31.5045 7.75866 31.1817 7.69811 30.8565 7.70285C30.5313 7.70759 30.2104 7.77752 29.9128 7.90851C29.6151 8.0395 29.3468 8.22887 29.1236 8.46542C28.6897 8.92548 28.4521 9.53655 28.4613 10.1689C28.4705 10.8013 28.7258 11.4052 29.173 11.8524C29.6202 12.2996 30.2241 12.5549 30.8565 12.5641C31.4889 12.5734 32.0999 12.3358 32.56 11.9018Z" fill="url(#paint0_linear_13_108)"/>
<defs>
<linearGradient id="paint0_linear_13_108" x1="20" y1="0.650879" x2="20" y2="40.6509" gradientUnits="userSpaceOnUse">
<stop stop-color="#FF352D"/>
<stop offset="1" stop-color="#F5D3A1"/>
</linearGradient>
</defs>
</svg>
