<svg width="37" height="38" viewBox="0 0 37 38" fill="none" xmlns="http://www.w3.org/2000/svg">
<path fill-rule="evenodd" clip-rule="evenodd" d="M0.128907 3.72984C0.128907 2.9174 0.45165 2.13822 1.02614 1.56374C1.60062 0.989251 2.37979 0.666508 3.19224 0.666508H33.7289C34.1315 0.66585 34.5303 0.744613 34.9025 0.898286C35.2746 1.05196 35.6128 1.27752 35.8977 1.56207C36.1825 1.84661 36.4084 2.18455 36.5625 2.55652C36.7166 2.9285 36.7958 3.32722 36.7956 3.72984V34.2665C36.796 34.6692 36.717 35.0681 36.5632 35.4402C36.4093 35.8124 36.1836 36.1505 35.8989 36.4354C35.6143 36.7202 35.2762 36.9461 34.9041 37.1002C34.5321 37.2542 34.1333 37.3334 33.7306 37.3332H3.19224C2.78982 37.3332 2.39134 37.2539 2.01957 37.0998C1.6478 36.9458 1.31003 36.72 1.02555 36.4354C0.741068 36.1507 0.515459 35.8128 0.361611 35.441C0.207762 35.0691 0.128688 34.6706 0.128907 34.2682V3.72984ZM14.6422 14.6465H19.6072V17.1398C20.3239 15.7065 22.1572 14.4165 24.9122 14.4165C30.1939 14.4165 31.4456 17.2715 31.4456 22.5098V32.2132H26.1006V23.7032C26.1006 20.7198 25.3839 19.0365 23.5639 19.0365C21.0389 19.0365 19.9889 20.8515 19.9889 23.7032V32.2132H14.6422V14.6465ZM5.47557 31.9848H10.8222V14.4165H5.47557V31.9848ZM11.5872 8.68651C11.5973 9.1443 11.5159 9.59949 11.3476 10.0254C11.1794 10.4512 10.9278 10.8392 10.6076 11.1666C10.2874 11.4939 9.90507 11.754 9.483 11.9315C9.06093 12.1091 8.60764 12.2005 8.14974 12.2005C7.69184 12.2005 7.23856 12.1091 6.81648 11.9315C6.39441 11.754 6.01205 11.4939 5.69185 11.1666C5.37165 10.8392 5.12006 10.4512 4.95184 10.0254C4.78362 9.59949 4.70216 9.1443 4.71224 8.68651C4.73203 7.78793 5.10288 6.93283 5.74538 6.30432C6.38788 5.67581 7.25095 5.32387 8.14974 5.32387C9.04853 5.32387 9.9116 5.67581 10.5541 6.30432C11.1966 6.93283 11.5675 7.78793 11.5872 8.68651Z" fill="url(#paint0_linear_27_5)"/>
<defs>
<linearGradient id="paint0_linear_27_5" x1="18.4622" y1="0.666504" x2="18.4622" y2="37.3332" gradientUnits="userSpaceOnUse">
<stop stop-color="#FF352D"/>
<stop offset="1" stop-color="#F5D3A1"/>
</linearGradient>
</defs>
</svg>
