<svg width="230" height="44" viewBox="0 0 230 44" fill="none" xmlns="http://www.w3.org/2000/svg">
<path d="M43.2078 34.2425V38.6491H28.6132V34.2425H43.2078ZM30.4587 11.2302V38.6491H24.8092V11.2302H30.4587ZM41.3058 22.3974V26.691H28.6132V22.3974H41.3058ZM43.1889 11.2302V15.6557H28.6132V11.2302H43.1889Z" fill="white"/>
<path d="M60.7965 9.72371H61.8134V38.6491H60.7965V9.72371ZM46.202 28.6495V28.2541C46.202 26.6471 46.3715 25.2096 46.7104 23.9416C47.062 22.6611 47.5641 21.5751 48.217 20.6837C48.8824 19.7798 49.6921 19.0893 50.6463 18.6123C51.6004 18.1352 52.6801 17.8966 53.8853 17.8966C55.0026 17.8966 55.9944 18.0661 56.8607 18.4051C57.7395 18.7441 58.4991 19.2211 59.1393 19.8363C59.7922 20.4389 60.332 21.1482 60.7589 21.9643C61.1857 22.7803 61.5121 23.6654 61.7381 24.6195V32.9243C61.5749 33.7278 61.2861 34.4999 60.8718 35.2406C60.4701 35.9688 59.9365 36.6216 59.2712 37.1991C58.6183 37.764 57.84 38.2097 56.936 38.5361C56.0321 38.8626 55.0026 39.0258 53.8476 39.0258C52.6424 39.0258 51.5627 38.781 50.6086 38.2913C49.667 37.7892 48.8698 37.0798 48.217 36.1634C47.5641 35.2469 47.062 34.1546 46.7104 32.8866C46.3715 31.6186 46.202 30.2063 46.202 28.6495ZM47.2566 28.2541V28.6495C47.2566 30.0054 47.3884 31.2546 47.652 32.397C47.9282 33.5395 48.3362 34.5313 48.8761 35.3724C49.4159 36.201 50.1001 36.8476 50.9287 37.3121C51.7573 37.7766 52.724 38.0089 53.8288 38.0089C55.26 38.0089 56.4778 37.7578 57.4821 37.2556C58.4865 36.7534 59.29 36.0817 59.8926 35.2406C60.4952 34.3995 60.9095 33.4704 61.1355 32.4535V25.2975C60.9974 24.6698 60.7777 23.9918 60.4764 23.2637C60.1876 22.523 59.7671 21.8262 59.2147 21.1734C58.6748 20.508 57.9655 19.9681 57.0867 19.5538C56.2204 19.127 55.147 18.9136 53.8665 18.9136C52.7491 18.9136 51.7762 19.1458 50.9476 19.6103C50.119 20.0748 49.4285 20.7277 48.8761 21.5688C48.3362 22.3974 47.9282 23.3829 47.652 24.5254C47.3884 25.6553 47.2566 26.8982 47.2566 28.2541Z" fill="white"/>
<path d="M69.3838 18.2733V38.6491H68.3668V18.2733H69.3838ZM67.8396 11.9082C67.8396 11.6194 67.94 11.3746 68.1409 11.1737C68.3417 10.9603 68.5865 10.8536 68.8753 10.8536C69.1641 10.8536 69.4089 10.9603 69.6097 11.1737C69.8232 11.3746 69.9299 11.6194 69.9299 11.9082C69.9299 12.1969 69.8232 12.4417 69.6097 12.6426C69.4089 12.8435 69.1641 12.9439 68.8753 12.9439C68.5865 12.9439 68.3417 12.8435 68.1409 12.6426C67.94 12.4417 67.8396 12.1969 67.8396 11.9082Z" fill="white"/>
<path d="M76.9352 38.6491H75.9183V18.2733H76.9352V38.6491ZM76.7658 26.7099L76.2196 25.6365C76.3452 24.6321 76.6214 23.6717 77.0482 22.7552C77.4751 21.8262 78.0338 20.9976 78.7243 20.2694C79.4147 19.5413 80.2182 18.9638 81.1347 18.5369C82.0512 18.1101 83.0618 17.8966 84.1666 17.8966C85.1961 17.8966 86.1125 18.041 86.916 18.3298C87.7195 18.606 88.3974 19.0517 88.9498 19.6668C89.5022 20.2694 89.9228 21.0478 90.2116 22.0019C90.5003 22.9561 90.6447 24.1111 90.6447 25.467V38.6491H89.6278V25.467C89.6278 23.7345 89.3893 22.3974 88.9122 21.4558C88.4477 20.5017 87.8011 19.8363 86.9725 19.4597C86.1439 19.083 85.1898 18.8947 84.1101 18.8947C82.8296 18.8947 81.731 19.1835 80.8146 19.761C79.9107 20.3259 79.1637 21.0353 78.5736 21.889C77.9961 22.7427 77.5567 23.6089 77.2554 24.4877C76.9666 25.3665 76.8034 26.1073 76.7658 26.7099Z" fill="white"/>
<path d="M104.222 39.0258C102.979 39.0258 101.818 38.781 100.738 38.2913C99.6588 37.7892 98.7109 37.0861 97.8949 36.1822C97.0788 35.2783 96.4386 34.2111 95.9741 32.9808C95.5221 31.7379 95.2961 30.3758 95.2961 28.8943V28.0657C95.2961 26.5718 95.5158 25.2096 95.9552 23.9793C96.4072 22.7364 97.0223 21.663 97.8007 20.7591C98.5917 19.8426 99.5018 19.1395 100.531 18.6499C101.561 18.1477 102.666 17.8966 103.846 17.8966C104.976 17.8966 106.011 18.1101 106.953 18.5369C107.894 18.9512 108.711 19.5413 109.401 20.3071C110.104 21.0729 110.644 21.9894 111.021 23.0565C111.397 24.1236 111.585 25.3038 111.585 26.5969V27.7833H95.9552V26.7664H110.569V26.5215C110.569 25.1531 110.292 23.8977 109.74 22.7552C109.188 21.6002 108.409 20.6712 107.405 19.9681C106.401 19.2651 105.214 18.9136 103.846 18.9136C102.716 18.9136 101.686 19.1521 100.757 19.6292C99.8408 20.1062 99.0499 20.7653 98.3845 21.6065C97.7191 22.4351 97.2044 23.4018 96.8403 24.5066C96.4888 25.6113 96.313 26.7977 96.313 28.0657V28.8943C96.313 30.1623 96.5139 31.3487 96.9156 32.4535C97.3174 33.5583 97.876 34.5313 98.5917 35.3724C99.3073 36.201 100.142 36.8538 101.096 37.3309C102.063 37.7954 103.105 38.0277 104.222 38.0277C105.39 38.0277 106.476 37.8331 107.48 37.4439C108.497 37.0547 109.426 36.314 110.267 35.2218L110.983 35.7302C110.531 36.3705 109.985 36.9417 109.345 37.4439C108.717 37.9335 107.976 38.3227 107.122 38.6115C106.281 38.8877 105.315 39.0258 104.222 39.0258Z" fill="white"/>
<path d="M117.442 18.2733V38.6491H116.425V18.2733H117.442ZM115.898 11.9082C115.898 11.6194 115.998 11.3746 116.199 11.1737C116.4 10.9603 116.645 10.8536 116.934 10.8536C117.222 10.8536 117.467 10.9603 117.668 11.1737C117.882 11.3746 117.988 11.6194 117.988 11.9082C117.988 12.1969 117.882 12.4417 117.668 12.6426C117.467 12.8435 117.222 12.9439 116.934 12.9439C116.645 12.9439 116.4 12.8435 116.199 12.6426C115.998 12.4417 115.898 12.1969 115.898 11.9082Z" fill="white"/>
<path d="M131.604 38.6491H125.634L125.672 34.2425H131.604C133.085 34.2425 134.334 33.9098 135.351 33.2444C136.368 32.5665 137.134 31.581 137.648 30.2879C138.176 28.9948 138.439 27.4317 138.439 25.5988V24.2617C138.439 22.8557 138.289 21.619 137.987 20.5519C137.699 19.4848 137.266 18.5871 136.688 17.859C136.111 17.1308 135.401 16.5847 134.56 16.2206C133.719 15.844 132.752 15.6557 131.66 15.6557H125.521V11.2302H131.66C133.493 11.2302 135.169 11.5441 136.688 12.1718C138.22 12.787 139.544 13.6721 140.662 14.8271C141.779 15.9821 142.639 17.3631 143.242 18.9701C143.857 20.5645 144.164 22.3409 144.164 24.2994V25.5988C144.164 27.5447 143.857 29.3212 143.242 30.9282C142.639 32.5351 141.779 33.9161 140.662 35.0711C139.557 36.2136 138.232 37.0987 136.688 37.7264C135.156 38.3415 133.462 38.6491 131.604 38.6491ZM128.835 11.2302V38.6491H123.186V11.2302H128.835Z" fill="white"/>
<path d="M156.235 39.0258C154.992 39.0258 153.831 38.781 152.751 38.2913C151.672 37.7892 150.724 37.0861 149.908 36.1822C149.092 35.2783 148.452 34.2111 147.987 32.9808C147.535 31.7379 147.309 30.3758 147.309 28.8943V28.0657C147.309 26.5718 147.529 25.2096 147.968 23.9793C148.42 22.7364 149.035 21.663 149.814 20.7591C150.605 19.8426 151.515 19.1395 152.544 18.6499C153.574 18.1477 154.679 17.8966 155.859 17.8966C156.989 17.8966 158.024 18.1101 158.966 18.5369C159.908 18.9512 160.724 19.5413 161.414 20.3071C162.117 21.0729 162.657 21.9894 163.034 23.0565C163.41 24.1236 163.599 25.3038 163.599 26.5969V27.7833H147.968V26.7664H162.582V26.5215C162.582 25.1531 162.305 23.8977 161.753 22.7552C161.201 21.6002 160.422 20.6712 159.418 19.9681C158.414 19.2651 157.227 18.9136 155.859 18.9136C154.729 18.9136 153.699 19.1521 152.77 19.6292C151.854 20.1062 151.063 20.7653 150.398 21.6065C149.732 22.4351 149.217 23.4018 148.853 24.5066C148.502 25.6113 148.326 26.7977 148.326 28.0657V28.8943C148.326 30.1623 148.527 31.3487 148.929 32.4535C149.33 33.5583 149.889 34.5313 150.605 35.3724C151.32 36.201 152.155 36.8538 153.109 37.3309C154.076 37.7954 155.118 38.0277 156.235 38.0277C157.403 38.0277 158.489 37.8331 159.493 37.4439C160.51 37.0547 161.439 36.314 162.28 35.2218L162.996 35.7302C162.544 36.3705 161.998 36.9417 161.358 37.4439C160.73 37.9335 159.989 38.3227 159.135 38.6115C158.294 38.8877 157.328 39.0258 156.235 39.0258Z" fill="white"/>
<path d="M172.148 37.4439L182.393 18.2921H183.504L172.657 38.6491H171.677L172.148 37.4439ZM168.193 18.2544L172.506 37.4627L172.619 38.6491H171.677L167.139 18.2544H168.193Z" fill="white"/>
<path d="M16.9371 6.55898C17.8784 5.61764 19.4046 5.61764 20.346 6.55898L21.3826 7.59564C22.324 8.53698 22.324 10.0632 21.3826 11.0045L5.15156 27.2356C4.21022 28.1769 2.68401 28.1769 1.74267 27.2356L0.706006 26.1989C-0.235334 25.2576 -0.235336 23.7314 0.706005 22.79L16.9371 6.55898Z" fill="url(#paint0_linear_13_130)"/>
<path d="M21.3826 38.5253C22.324 39.4666 22.324 40.9928 21.3826 41.9341L20.346 42.9708C19.4046 43.9121 17.8784 43.9121 16.9371 42.9708L0.706007 26.7398C-0.235333 25.7984 -0.235334 24.2722 0.706005 23.3309L1.74267 22.2942C2.68401 21.3529 4.21022 21.3529 5.15156 22.2942L21.3826 38.5253Z" fill="url(#paint1_linear_13_130)"/>
<path d="M212.993 6.55901C212.052 5.61767 210.525 5.61767 209.584 6.55901L208.547 7.59567C207.606 8.53701 207.606 10.0632 208.547 11.0046L224.779 27.2356C225.72 28.177 227.246 28.177 228.187 27.2356L229.224 26.199C230.165 25.2576 230.165 23.7314 229.224 22.7901L212.993 6.55901Z" fill="url(#paint2_linear_13_130)"/>
<path d="M208.547 38.5253C207.606 39.4666 207.606 40.9928 208.547 41.9342L209.584 42.9708C210.525 43.9122 212.052 43.9122 212.993 42.9708L229.224 26.7398C230.165 25.7984 230.165 24.2722 229.224 23.3309L228.187 22.2942C227.246 21.3529 225.72 21.3529 224.779 22.2942L208.547 38.5253Z" fill="url(#paint3_linear_13_130)"/>
<path d="M181.23 38.7887C180.625 39.9743 181.095 41.4263 182.281 42.0318L183.587 42.6985C184.772 43.304 186.224 42.8337 186.83 41.6481L205.691 4.71408C206.297 3.52848 205.826 2.07653 204.641 1.47106L203.335 0.804283C202.15 0.198813 200.698 0.669103 200.092 1.8547L181.23 38.7887Z" fill="url(#paint4_linear_13_130)"/>
<defs>
<linearGradient id="paint0_linear_13_130" x1="114.965" y1="0.540039" x2="114.965" y2="43.6768" gradientUnits="userSpaceOnUse">
<stop stop-color="#FF352D"/>
<stop offset="1" stop-color="#F5D3A1"/>
</linearGradient>
<linearGradient id="paint1_linear_13_130" x1="114.965" y1="0.540039" x2="114.965" y2="43.6768" gradientUnits="userSpaceOnUse">
<stop stop-color="#FF352D"/>
<stop offset="1" stop-color="#F5D3A1"/>
</linearGradient>
<linearGradient id="paint2_linear_13_130" x1="114.965" y1="0.540039" x2="114.965" y2="43.6768" gradientUnits="userSpaceOnUse">
<stop stop-color="#FF352D"/>
<stop offset="1" stop-color="#F5D3A1"/>
</linearGradient>
<linearGradient id="paint3_linear_13_130" x1="114.965" y1="0.540039" x2="114.965" y2="43.6768" gradientUnits="userSpaceOnUse">
<stop stop-color="#FF352D"/>
<stop offset="1" stop-color="#F5D3A1"/>
</linearGradient>
<linearGradient id="paint4_linear_13_130" x1="114.965" y1="0.540039" x2="114.965" y2="43.6768" gradientUnits="userSpaceOnUse">
<stop stop-color="#FF352D"/>
<stop offset="1" stop-color="#F5D3A1"/>
</linearGradient>
</defs>
</svg>
