<svg width="383" height="75" viewBox="0 0 383 75" fill="none" xmlns="http://www.w3.org/2000/svg">
<path d="M72.4728 56.865V64.1775H48.2541V56.865H72.4728ZM51.3166 18.6775V64.1775H41.9416V18.6775H51.3166ZM69.3166 37.2087V44.3337H48.2541V37.2087H69.3166ZM72.4416 18.6775V26.0212H48.2541V18.6775H72.4416ZM101.66 57.615V16.1775H103.348V64.1775H101.66V57.615ZM77.4416 47.5837V46.9275C77.4416 44.2608 77.7228 41.8754 78.2853 39.7712C78.8687 37.6462 79.702 35.8441 80.7853 34.365C81.8895 32.865 83.2333 31.7191 84.8166 30.9275C86.3999 30.1358 88.1916 29.74 90.1916 29.74C92.0458 29.74 93.6916 30.0212 95.1291 30.5837C96.5874 31.1462 97.8478 31.9379 98.9103 32.9587C99.9937 33.9587 100.89 35.1358 101.598 36.49C102.306 37.8441 102.848 39.3129 103.223 40.8962V54.6775C102.952 56.0108 102.473 57.2921 101.785 58.5212C101.119 59.7296 100.233 60.8129 99.1291 61.7712C98.0458 62.7087 96.7541 63.4483 95.2541 63.99C93.7541 64.5316 92.0458 64.8025 90.1291 64.8025C88.1291 64.8025 86.3374 64.3962 84.7541 63.5837C83.1916 62.7504 81.8687 61.5733 80.7853 60.0525C79.702 58.5316 78.8687 56.7191 78.2853 54.615C77.7228 52.5108 77.4416 50.1671 77.4416 47.5837ZM79.1916 46.9275V47.5837C79.1916 49.8337 79.4103 51.9066 79.8478 53.8025C80.3062 55.6983 80.9833 57.3441 81.8791 58.74C82.7749 60.115 83.9103 61.1879 85.2853 61.9587C86.6603 62.7296 88.2645 63.115 90.0978 63.115C92.4728 63.115 94.4937 62.6983 96.1603 61.865C97.827 61.0316 99.1603 59.9171 100.16 58.5212C101.16 57.1254 101.848 55.5837 102.223 53.8962V42.0212C101.994 40.9796 101.629 39.8546 101.129 38.6462C100.65 37.4171 99.952 36.2608 99.0353 35.1775C98.1395 34.0733 96.9624 33.1775 95.5041 32.49C94.0666 31.7816 92.2853 31.4275 90.1603 31.4275C88.3062 31.4275 86.6916 31.8129 85.3166 32.5837C83.9416 33.3546 82.7958 34.4379 81.8791 35.8337C80.9833 37.2087 80.3062 38.8441 79.8478 40.74C79.4103 42.615 79.1916 44.6775 79.1916 46.9275ZM115.91 30.365V64.1775H114.223V30.365H115.91ZM113.348 19.8025C113.348 19.3233 113.515 18.9171 113.848 18.5837C114.181 18.2296 114.587 18.0525 115.067 18.0525C115.546 18.0525 115.952 18.2296 116.285 18.5837C116.64 18.9171 116.817 19.3233 116.817 19.8025C116.817 20.2816 116.64 20.6879 116.285 21.0212C115.952 21.3546 115.546 21.5212 115.067 21.5212C114.587 21.5212 114.181 21.3546 113.848 21.0212C113.515 20.6879 113.348 20.2816 113.348 19.8025ZM128.442 37.5837V64.1775H126.754V30.365H128.442V37.5837ZM128.16 44.365L127.254 42.5837C127.462 40.9171 127.921 39.3233 128.629 37.8025C129.337 36.2608 130.265 34.8858 131.41 33.6775C132.556 32.4691 133.89 31.5108 135.41 30.8025C136.931 30.0941 138.608 29.74 140.442 29.74C142.15 29.74 143.671 29.9796 145.004 30.4587C146.337 30.9171 147.462 31.6566 148.379 32.6775C149.296 33.6775 149.994 34.9691 150.473 36.5525C150.952 38.1358 151.192 40.0525 151.192 42.3025V64.1775H149.504V42.3025C149.504 39.4275 149.108 37.2087 148.317 35.6462C147.546 34.0629 146.473 32.9587 145.098 32.3337C143.723 31.7087 142.14 31.3962 140.348 31.3962C138.223 31.3962 136.4 31.8754 134.879 32.8337C133.379 33.7712 132.14 34.9483 131.16 36.365C130.202 37.7816 129.473 39.2191 128.973 40.6775C128.494 42.1358 128.223 43.365 128.16 44.365ZM173.723 64.8025C171.66 64.8025 169.733 64.3962 167.942 63.5837C166.15 62.7504 164.577 61.5837 163.223 60.0837C161.869 58.5837 160.806 56.8129 160.035 54.7712C159.285 52.7087 158.91 50.4483 158.91 47.99V46.615C158.91 44.1358 159.275 41.8754 160.004 39.8337C160.754 37.7712 161.775 35.99 163.067 34.49C164.379 32.9691 165.89 31.8025 167.598 30.99C169.306 30.1566 171.14 29.74 173.098 29.74C174.973 29.74 176.692 30.0941 178.254 30.8025C179.817 31.49 181.171 32.4691 182.317 33.74C183.483 35.0108 184.379 36.5316 185.004 38.3025C185.629 40.0733 185.942 42.0316 185.942 44.1775V46.1462H160.004V44.4587H184.254V44.0525C184.254 41.7816 183.796 39.6983 182.879 37.8025C181.962 35.8858 180.671 34.3441 179.004 33.1775C177.337 32.0108 175.369 31.4275 173.098 31.4275C171.223 31.4275 169.515 31.8233 167.973 32.615C166.452 33.4066 165.14 34.5004 164.035 35.8962C162.931 37.2712 162.077 38.8754 161.473 40.7087C160.89 42.5421 160.598 44.5108 160.598 46.615V47.99C160.598 50.0941 160.931 52.0629 161.598 53.8962C162.265 55.7296 163.192 57.3441 164.379 58.74C165.567 60.115 166.952 61.1983 168.535 61.99C170.14 62.7608 171.869 63.1462 173.723 63.1462C175.66 63.1462 177.462 62.8233 179.129 62.1775C180.817 61.5316 182.358 60.3025 183.754 58.49L184.942 59.3337C184.192 60.3962 183.285 61.3441 182.223 62.1775C181.181 62.99 179.952 63.6358 178.535 64.115C177.14 64.5733 175.535 64.8025 173.723 64.8025ZM195.66 30.365V64.1775H193.973V30.365H195.66ZM193.098 19.8025C193.098 19.3233 193.265 18.9171 193.598 18.5837C193.931 18.2296 194.337 18.0525 194.817 18.0525C195.296 18.0525 195.702 18.2296 196.035 18.5837C196.39 18.9171 196.567 19.3233 196.567 19.8025C196.567 20.2816 196.39 20.6879 196.035 21.0212C195.702 21.3546 195.296 21.5212 194.817 21.5212C194.337 21.5212 193.931 21.3546 193.598 21.0212C193.265 20.6879 193.098 20.2816 193.098 19.8025ZM219.16 64.1775H209.254L209.317 56.865H219.16C221.619 56.865 223.692 56.3129 225.379 55.2087C227.067 54.0837 228.337 52.4483 229.192 50.3025C230.067 48.1566 230.504 45.5629 230.504 42.5212V40.3025C230.504 37.9691 230.254 35.9171 229.754 34.1462C229.275 32.3754 228.556 30.8858 227.598 29.6775C226.64 28.4691 225.462 27.5629 224.067 26.9587C222.671 26.3337 221.067 26.0212 219.254 26.0212H209.067V18.6775H219.254C222.296 18.6775 225.077 19.1983 227.598 20.24C230.14 21.2608 232.337 22.7296 234.192 24.6462C236.046 26.5629 237.473 28.8546 238.473 31.5212C239.494 34.1671 240.004 37.115 240.004 40.365V42.5212C240.004 45.7504 239.494 48.6983 238.473 51.365C237.473 54.0316 236.046 56.3233 234.192 58.24C232.358 60.1358 230.16 61.6046 227.598 62.6462C225.056 63.6671 222.244 64.1775 219.16 64.1775ZM214.567 18.6775V64.1775H205.192V18.6775H214.567ZM260.035 64.8025C257.973 64.8025 256.046 64.3962 254.254 63.5837C252.462 62.7504 250.89 61.5837 249.535 60.0837C248.181 58.5837 247.119 56.8129 246.348 54.7712C245.598 52.7087 245.223 50.4483 245.223 47.99V46.615C245.223 44.1358 245.587 41.8754 246.317 39.8337C247.067 37.7712 248.087 35.99 249.379 34.49C250.692 32.9691 252.202 31.8025 253.91 30.99C255.619 30.1566 257.452 29.74 259.41 29.74C261.285 29.74 263.004 30.0941 264.567 30.8025C266.129 31.49 267.483 32.4691 268.629 33.74C269.796 35.0108 270.692 36.5316 271.317 38.3025C271.942 40.0733 272.254 42.0316 272.254 44.1775V46.1462H246.317V44.4587H270.567V44.0525C270.567 41.7816 270.108 39.6983 269.192 37.8025C268.275 35.8858 266.983 34.3441 265.317 33.1775C263.65 32.0108 261.681 31.4275 259.41 31.4275C257.535 31.4275 255.827 31.8233 254.285 32.615C252.765 33.4066 251.452 34.5004 250.348 35.8962C249.244 37.2712 248.39 38.8754 247.785 40.7087C247.202 42.5421 246.91 44.5108 246.91 46.615V47.99C246.91 50.0941 247.244 52.0629 247.91 53.8962C248.577 55.7296 249.504 57.3441 250.692 58.74C251.879 60.115 253.265 61.1983 254.848 61.99C256.452 62.7608 258.181 63.1462 260.035 63.1462C261.973 63.1462 263.775 62.8233 265.442 62.1775C267.129 61.5316 268.671 60.3025 270.067 58.49L271.254 59.3337C270.504 60.3962 269.598 61.3441 268.535 62.1775C267.494 62.99 266.265 63.6358 264.848 64.115C263.452 64.5733 261.848 64.8025 260.035 64.8025ZM286.442 62.1775L303.442 30.3962H305.285L287.285 64.1775H285.66L286.442 62.1775ZM279.879 30.3337L287.035 62.2087L287.223 64.1775H285.66L278.129 30.3337H279.879Z" fill="black"/>
<path d="M28.8783 10.9258C30.4404 9.3637 32.973 9.3637 34.5351 10.9258L36.2554 12.6461C37.8175 14.2082 37.8175 16.7408 36.2554 18.3029L9.32093 45.2374C7.75883 46.7995 5.22617 46.7995 3.66407 45.2374L1.94379 43.5171C0.381694 41.955 0.381691 39.4224 1.94379 37.8603L28.8783 10.9258Z" fill="url(#paint0_linear_8_704)"/>
<path d="M36.2554 63.9719C37.8175 65.534 37.8175 68.0667 36.2554 69.6288L34.5351 71.349C32.973 72.9111 30.4404 72.9111 28.8783 71.3491L1.94379 44.4146C0.381695 42.8525 0.381694 40.3198 1.94379 38.7577L3.66407 37.0374C5.22617 35.4753 7.75883 35.4753 9.32093 37.0374L36.2554 63.9719Z" fill="url(#paint1_linear_8_704)"/>
<path d="M354.221 10.9259C352.659 9.36375 350.127 9.36375 348.564 10.9258L346.844 12.6461C345.282 14.2082 345.282 16.7409 346.844 18.303L373.779 45.2375C375.341 46.7996 377.873 46.7995 379.435 45.2375L381.156 43.5172C382.718 41.9551 382.718 39.4224 381.156 37.8603L354.221 10.9259Z" fill="url(#paint2_linear_8_704)"/>
<path d="M346.844 63.9719C345.282 65.534 345.282 68.0667 346.844 69.6288L348.564 71.3491C350.127 72.9112 352.659 72.9112 354.221 71.3491L381.156 44.4146C382.718 42.8525 382.718 40.3198 381.156 38.7577L379.435 37.0375C377.873 35.4754 375.341 35.4754 373.779 37.0375L346.844 63.9719Z" fill="url(#paint3_linear_8_704)"/>
<path d="M301.513 64.4091C300.509 66.3766 301.289 68.786 303.256 69.7907L305.423 70.8972C307.39 71.902 309.8 71.1215 310.805 69.1541L342.104 7.8643C343.109 5.89686 342.329 3.48745 340.361 2.48271L338.195 1.37623C336.227 0.371485 333.818 1.1519 332.813 3.11933L301.513 64.4091Z" fill="url(#paint4_linear_8_704)"/>
<defs>
<linearGradient id="paint0_linear_8_704" x1="19.0996" y1="9.75423" x2="19.0996" y2="72.5206" gradientUnits="userSpaceOnUse">
<stop stop-color="#FF352D"/>
<stop offset="1" stop-color="#F5D3A1"/>
</linearGradient>
<linearGradient id="paint1_linear_8_704" x1="19.0996" y1="9.75423" x2="19.0996" y2="72.5206" gradientUnits="userSpaceOnUse">
<stop stop-color="#FF352D"/>
<stop offset="1" stop-color="#F5D3A1"/>
</linearGradient>
<linearGradient id="paint2_linear_8_704" x1="341.701" y1="0.937729" x2="341.701" y2="72.5206" gradientUnits="userSpaceOnUse">
<stop stop-color="#FF352D"/>
<stop offset="1" stop-color="#F5D3A1"/>
</linearGradient>
<linearGradient id="paint3_linear_8_704" x1="341.701" y1="0.937729" x2="341.701" y2="72.5206" gradientUnits="userSpaceOnUse">
<stop stop-color="#FF352D"/>
<stop offset="1" stop-color="#F5D3A1"/>
</linearGradient>
<linearGradient id="paint4_linear_8_704" x1="341.701" y1="0.937729" x2="341.701" y2="72.5206" gradientUnits="userSpaceOnUse">
<stop stop-color="#FF352D"/>
<stop offset="1" stop-color="#F5D3A1"/>
</linearGradient>
</defs>
</svg>
