<svg width="21" height="21" viewBox="0 0 21 21" fill="none" xmlns="http://www.w3.org/2000/svg">
<path d="M10.5 0.819336C4.986 0.819336 0.5 5.30534 0.5 10.8193C0.5 16.3333 4.986 20.8193 10.5 20.8193C16.014 20.8193 20.5 16.3333 20.5 10.8193C20.5 5.30534 16.014 0.819336 10.5 0.819336ZM10.5 18.8193C6.089 18.8193 2.5 15.2303 2.5 10.8193C2.5 6.40834 6.089 2.81934 10.5 2.81934C14.911 2.81934 18.5 6.40834 18.5 10.8193C18.5 15.2303 14.911 18.8193 10.5 18.8193Z" fill="url(#paint0_linear_13_22)"/>
<path d="M11.5 5.81934H9.5V11.2333L12.793 14.5263L14.207 13.1123L11.5 10.4053V5.81934Z" fill="url(#paint1_linear_13_22)"/>
<defs>
<linearGradient id="paint0_linear_13_22" x1="10.5" y1="0.819336" x2="10.5" y2="20.8193" gradientUnits="userSpaceOnUse">
<stop stop-color="#FF352D"/>
<stop offset="1" stop-color="#F5D3A1"/>
</linearGradient>
<linearGradient id="paint1_linear_13_22" x1="10.5" y1="0.819336" x2="10.5" y2="20.8193" gradientUnits="userSpaceOnUse">
<stop stop-color="#FF352D"/>
<stop offset="1" stop-color="#F5D3A1"/>
</linearGradient>
</defs>
</svg>
