<svg width="40" height="41" viewBox="0 0 40 41" fill="none" xmlns="http://www.w3.org/2000/svg">
<path fill-rule="evenodd" clip-rule="evenodd" d="M29.1647 24.6209C28.6656 24.3726 26.2189 23.1759 25.7634 23.0092C25.3079 22.8442 24.9763 22.7626 24.643 23.2592C24.3114 23.7526 23.3585 24.8692 23.0688 25.1992C22.7774 25.5309 22.4877 25.5709 21.9903 25.3242C21.4929 25.0742 19.8886 24.5526 17.9878 22.8659C16.5091 21.5526 15.5093 19.9309 15.2196 19.4342C14.9298 18.9393 15.1877 18.6709 15.4373 18.4242C15.6617 18.2026 15.9346 17.8459 16.1842 17.5576C16.4337 17.2676 16.5158 17.0609 16.6816 16.7293C16.849 16.3993 16.7653 16.1109 16.6397 15.8626C16.5158 15.6143 15.521 13.1759 15.1057 12.1843C14.7021 11.2193 14.2918 11.3509 13.987 11.3343C13.6956 11.3209 13.364 11.3176 13.0324 11.3176C12.7008 11.3176 12.1616 11.4409 11.7061 11.9376C11.2489 12.4326 9.96439 13.6309 9.96439 16.0693C9.96439 18.5059 11.7463 20.8609 11.9958 21.1926C12.2453 21.5226 15.5043 26.5259 20.4965 28.6709C21.6855 29.1809 22.6116 29.4859 23.3334 29.7126C24.5258 30.0909 25.611 30.0376 26.4684 29.9092C27.423 29.7676 29.4125 28.7109 29.8279 27.5542C30.2415 26.3976 30.2415 25.4059 30.1176 25.1992C29.9936 24.9926 29.6621 24.8692 29.163 24.6209H29.1647ZM20.0845 36.9592H20.0778C17.1127 36.9598 14.202 36.1665 11.6508 34.6626L11.0479 34.3059L4.78123 35.9426L6.45425 29.8626L6.06069 29.2392C4.40298 26.6131 3.52571 23.5739 3.53024 20.4726C3.53359 11.3893 10.9592 3.99928 20.0912 3.99928C24.5124 3.99928 28.669 5.71594 31.7939 8.82927C33.3353 10.3569 34.557 12.1735 35.3883 14.1741C36.2196 16.1746 36.6441 18.3194 36.6371 20.4842C36.6338 29.5676 29.2082 36.9592 20.0845 36.9592ZM34.172 6.46427C32.3268 4.61581 30.1314 3.15017 27.7129 2.15228C25.2944 1.15439 22.7009 0.644085 20.0829 0.650947C9.10695 0.650947 0.170818 9.5426 0.167469 20.4709C0.162383 23.9488 1.07913 27.3665 2.8252 30.3792L0 40.6509L10.5572 37.8942C13.4777 39.4777 16.7504 40.3075 20.0762 40.3075H20.0845C31.0604 40.3075 39.9966 31.4159 39.9999 20.4859C40.008 17.8814 39.4971 15.3011 38.4968 12.8943C37.4964 10.4875 36.0265 8.30205 34.172 6.46427Z" fill="url(#paint0_linear_13_109)"/>
<defs>
<linearGradient id="paint0_linear_13_109" x1="20" y1="0.650879" x2="20" y2="40.6509" gradientUnits="userSpaceOnUse">
<stop stop-color="#FF352D"/>
<stop offset="1" stop-color="#F5D3A1"/>
</linearGradient>
</defs>
</svg>
